<svg width="21" height="19" viewBox="0 0 21 19" fill="none" xmlns="http://www.w3.org/2000/svg">
<path d="M19.2913 2.37989C18.7805 1.8689 18.1741 1.46354 17.5066 1.18698C16.8392 0.910414 16.1238 0.768066 15.4013 0.768066C14.6788 0.768066 13.9634 0.910414 13.2959 1.18698C12.6285 1.46354 12.022 1.8689 11.5113 2.37989L10.4513 3.43989L9.39129 2.37989C8.3596 1.3482 6.96032 0.768601 5.50129 0.768601C4.04226 0.768601 2.64298 1.3482 1.61129 2.37989C0.579599 3.41158 1.08706e-08 4.81086 0 6.26989C-1.08706e-08 7.72892 0.579599 9.1282 1.61129 10.1599L2.67129 11.2199L10.4513 18.9999L18.2313 11.2199L19.2913 10.1599C19.8023 9.64914 20.2076 9.04271 20.4842 8.37525C20.7608 7.70779 20.9031 6.99238 20.9031 6.26989C20.9031 5.5474 20.7608 4.832 20.4842 4.16454C20.2076 3.49708 19.8023 2.89065 19.2913 2.37989Z" fill="url(#paint0_linear_991_12723)"/>
<defs>
<linearGradient id="paint0_linear_991_12723" x1="-151.548" y1="-112" x2="-151.548" y2="-93.7682" gradientUnits="userSpaceOnUse">
<stop stop-color="#FF6169"/>
<stop offset="1" stop-color="#FFA752"/>
</linearGradient>
</defs>
</svg>
