<svg width="23" height="21" viewBox="0 0 23 21" fill="none" xmlns="http://www.w3.org/2000/svg">
<path d="M20.5779 3.05714C20.0672 2.54614 19.4607 2.14078 18.7933 1.86422C18.1258 1.58766 17.4104 1.44531 16.6879 1.44531C15.9654 1.44531 15.25 1.58766 14.5826 1.86422C13.9151 2.14078 13.3087 2.54614 12.7979 3.05714L11.7379 4.11714L10.6779 3.05714C9.64622 2.02545 8.24694 1.44585 6.78791 1.44585C5.32888 1.44585 3.9296 2.02545 2.89791 3.05714C1.86622 4.08883 1.28662 5.4881 1.28662 6.94714C1.28662 8.40617 1.86622 9.80545 2.89791 10.8371L3.95791 11.8971L11.7379 19.6771L19.5179 11.8971L20.5779 10.8371C21.0889 10.3264 21.4943 9.71995 21.7708 9.05249C22.0474 8.38503 22.1897 7.66963 22.1897 6.94714C22.1897 6.22465 22.0474 5.50924 21.7708 4.84178C21.4943 4.17432 21.0889 3.56789 20.5779 3.05714Z" stroke="url(#paint0_linear_1768_1112)" stroke-linecap="round" stroke-linejoin="round"/>
<defs>
<linearGradient id="paint0_linear_1768_1112" x1="11.7382" y1="1.44531" x2="11.7382" y2="19.6771" gradientUnits="userSpaceOnUse">
<stop stop-color="#FF6468"/>
<stop offset="1" stop-color="#FFA254"/>
</linearGradient>
</defs>
</svg>
