<svg width="37" height="36" viewBox="0 0 37 36" fill="none" xmlns="http://www.w3.org/2000/svg">
<rect x="1.31226" y="0.5" width="35" height="35" rx="7.5" stroke="url(#paint0_linear_991_13006)"/>
<path d="M25.5785 12.2562C25.1876 11.8651 24.7234 11.5548 24.2125 11.3431C23.7016 11.1314 23.154 11.0225 22.601 11.0225C22.0479 11.0225 21.5003 11.1314 20.9894 11.3431C20.4785 11.5548 20.0144 11.8651 19.6234 12.2562L18.8121 13.0676L18.0007 12.2562C17.211 11.4665 16.1399 11.0229 15.0231 11.0229C13.9063 11.0229 12.8353 11.4665 12.0456 12.2562C11.2559 13.0459 10.8123 14.117 10.8123 15.2338C10.8123 16.3506 11.2559 17.4216 12.0456 18.2113L12.857 19.0227L18.8121 24.9778L24.7671 19.0227L25.5785 18.2113C25.9696 17.8204 26.2799 17.3562 26.4916 16.8453C26.7033 16.3344 26.8123 15.7868 26.8123 15.2338C26.8123 14.6807 26.7033 14.1331 26.4916 13.6222C26.2799 13.1113 25.9696 12.6472 25.5785 12.2562Z" stroke="url(#paint1_linear_991_13006)" stroke-linecap="round" stroke-linejoin="round"/>
<defs>
<linearGradient id="paint0_linear_991_13006" x1="0.786586" y1="17.9492" x2="36.7866" y2="17.9492" gradientUnits="userSpaceOnUse">
<stop stop-color="#FF5F6A"/>
<stop offset="1" stop-color="#FFA752"/>
</linearGradient>
<linearGradient id="paint1_linear_991_13006" x1="18.8123" y1="11.0225" x2="18.8123" y2="24.9778" gradientUnits="userSpaceOnUse">
<stop stop-color="#FF6468"/>
<stop offset="1" stop-color="#FFA154"/>
</linearGradient>
</defs>
</svg>
