<svg width="24" height="24" viewBox="0 0 24 24" fill="none" xmlns="http://www.w3.org/2000/svg">
<path d="M14.7941 7.76471C14.7941 9.56775 13.3325 11.0294 11.5294 11.0294C9.72636 11.0294 8.26471 9.56775 8.26471 7.76471C8.26471 5.96166 9.72636 4.5 11.5294 4.5C13.3325 4.5 14.7941 5.96166 14.7941 7.76471ZM18.5588 18.1176V19.0588C18.5588 19.1758 18.5123 19.288 18.4296 19.3708C18.3469 19.4535 18.2347 19.5 18.1176 19.5H4.94118C4.82417 19.5 4.71195 19.4535 4.62922 19.3708C4.54648 19.288 4.5 19.1758 4.5 19.0588V18.1176C4.5 16.7526 5.04228 15.4434 6.00754 14.4781C6.9728 13.5129 8.28197 12.9706 9.64706 12.9706H13.4118C14.7768 12.9706 16.086 13.5129 17.0513 14.4781C18.0165 15.4434 18.5588 16.7526 18.5588 18.1176Z" stroke="url(#paint0_linear_993_647)"/>
<defs>
<linearGradient id="paint0_linear_993_647" x1="11.5294" y1="4" x2="11.5294" y2="20" gradientUnits="userSpaceOnUse">
<stop stop-color="#FF6667"/>
<stop offset="1" stop-color="#FFA652"/>
</linearGradient>
</defs>
</svg>
