<svg width="70" height="49" viewBox="0 0 70 49" fill="none" xmlns="http://www.w3.org/2000/svg">
<rect x="0.5" y="1" width="69" height="47" rx="5.5" fill="#1F72CD" stroke="#D9D9D9"/>
<path fill-rule="evenodd" clip-rule="evenodd" d="M12.5493 17.5L6 31.9935H13.8405L14.8125 29.6826H17.0342L18.0062 31.9935H26.6364V30.2298L27.4054 31.9935H31.8696L32.6386 30.1925V31.9935H50.587L52.7695 29.7426L54.813 31.9935L64.0317 32.0121L57.4617 24.7872L64.0317 17.5H54.956L52.8315 19.7093L50.8523 17.5H31.3268L29.6501 21.2409L27.9341 17.5H20.11V19.2037L19.2396 17.5H12.5493ZM39.3516 19.5581H49.6584L52.8108 22.9633L56.0648 19.5581H59.2172L54.4275 24.7852L59.2172 29.952H55.9218L52.7695 26.5073L49.4989 29.952H39.3516V19.5581ZM41.8968 23.6099V21.7114V21.7096H48.328L51.1342 24.7458L48.2036 27.7986H41.8968V25.726H47.5197V23.6099H41.8968ZM14.0664 19.5581H17.8883L22.2324 29.3862V19.5581H26.4191L29.7745 26.6048L32.8668 19.5581H37.0326V29.9581H34.4978L34.4771 21.8087L30.7817 29.9581H28.5142L24.7981 21.8087V29.9581H19.5836L18.595 27.6266H13.254L12.2675 29.9561H9.47358L14.0664 19.5581ZM14.166 25.4712L15.9256 21.3177L17.6832 25.4712H14.166Z" fill="white"/>
</svg>
