<svg width="70" height="49" viewBox="0 0 70 49" fill="none" xmlns="http://www.w3.org/2000/svg">
<rect x="0.5" y="1" width="69" height="47" rx="5.5" fill="white" stroke="#D9D9D9"/>
<path d="M29.4688 47.5L68.9688 36V42.5C68.9688 45.2614 66.7302 47.5 63.9688 47.5H29.4688Z" fill="#FD6020"/>
<path fill-rule="evenodd" clip-rule="evenodd" d="M61.4712 19.7217C63.6443 19.7217 64.8395 20.6888 64.8395 22.5155C64.9482 23.9124 63.9703 25.0944 62.6664 25.3093L65.6001 29.2851H63.3183L60.8192 25.4168H60.6019V29.2851H58.7548V19.7217H61.4712ZM60.6019 24.1273H61.1452C62.3404 24.1273 62.8837 23.59 62.8837 22.6229C62.8837 21.7633 62.3404 21.226 61.1452 21.226H60.6019V24.1273ZM52.3441 29.2851H57.5596V27.6733H54.1913V25.0944H57.4509V23.4826H54.1913V21.3335H57.5596V19.7217H52.3441V29.2851ZM46.9113 26.1689L44.4123 19.7217H42.4565L46.4767 29.5H47.4546L51.4749 19.7217H49.5191L46.9113 26.1689ZM24.8542 24.5571C24.8542 27.2435 27.0274 29.5 29.7437 29.5C30.613 29.5 31.3736 29.2851 32.1342 28.9627V26.8137C31.5909 27.4584 30.8303 27.8882 29.9611 27.8882C28.2226 27.8882 26.81 26.5987 26.81 24.8795V24.6646C26.7014 22.9453 28.1139 21.441 29.8524 21.3335C30.7216 21.3335 31.5909 21.7633 32.1342 22.408V20.259C31.4822 19.8291 30.613 19.7217 29.8524 19.7217C27.0274 19.5068 24.8542 21.7633 24.8542 24.5571ZM21.4859 23.3751C20.3994 22.9453 20.0734 22.7304 20.0734 22.1931C20.182 21.5484 20.7253 21.0111 21.3773 21.1186C21.9205 21.1186 22.4638 21.441 22.8984 21.8708L23.8763 20.5813C23.1158 19.9366 22.1379 19.5068 21.16 19.5068C19.6388 19.3993 18.3349 20.5813 18.2262 22.0857V22.1931C18.2262 23.4826 18.7695 24.2348 20.508 24.772C20.9426 24.8795 21.3773 25.0944 21.8119 25.3093C22.1379 25.5242 22.3552 25.8466 22.3552 26.2764C22.3552 27.0286 21.7032 27.6733 21.0513 27.6733H20.9426C20.0734 27.6733 19.3128 27.136 18.9868 26.3838L17.7916 27.5658C18.4436 28.7478 19.7474 29.3925 21.0513 29.3925C22.7898 29.5 24.2023 28.2106 24.311 26.4913V26.1689C24.2023 24.8795 23.659 24.2348 21.4859 23.3751ZM15.1839 29.2851H17.031V19.7217H15.1839V29.2851ZM6.6001 19.7217H9.31649H9.85977C12.4675 19.8292 14.532 21.9782 14.4233 24.5571C14.4233 25.954 13.7714 27.2435 12.6848 28.2106C11.7069 28.9627 10.5117 29.3926 9.31649 29.2851H6.6001V19.7217ZM8.99051 27.6733C9.85976 27.7807 10.8377 27.4584 11.4896 26.9211C12.1415 26.2764 12.4675 25.4168 12.4675 24.4497C12.4675 23.59 12.1415 22.7304 11.4896 22.0857C10.8377 21.5484 9.85976 21.2261 8.99051 21.3335H8.44724V27.6733H8.99051Z" fill="black"/>
<path fill-rule="evenodd" clip-rule="evenodd" d="M37.6754 19.5C34.959 19.5 32.6772 21.6491 32.6772 24.4429C32.6772 27.1292 34.8504 29.3858 37.6754 29.4932C40.5005 29.6007 42.6736 27.3441 42.7822 24.5503C42.6736 21.7565 40.5005 19.5 37.6754 19.5V19.5Z" fill="#FD6020"/>
</svg>
