<svg width="582" height="625" viewBox="0 0 582 625" fill="none" xmlns="http://www.w3.org/2000/svg">
<path d="M566.13 341.436C566.13 268.397 546.28 183.349 493.128 130.197C440.321 77.3891 355.98 58.8711 283.565 58.8711C213.17 58.8711 144.042 79.6701 93.469 130.197C38.576 185.034 1 263.239 1 341.436C1 417.863 41.1363 477.523 93.469 529.856C146.137 582.524 206.532 624.001 283.565 624.001C362.05 624.001 438.328 584.702 493.128 529.856C543.627 479.311 566.13 412.175 566.13 341.436Z" fill="#5C5C5C" fill-opacity="0.1" stroke="url(#paint0_linear_1689_12508)" stroke-width="0.321773" stroke-miterlimit="10"/>
<path d="M290.05 590.706C227.392 590.399 170.107 543.587 123.881 497.315C78.578 451.965 33.2652 396.411 33.1721 333.828C33.0697 264.625 71.7536 186.075 123.891 133.994C168.412 89.5374 232.466 76.6614 290.05 76.95C352.559 77.2573 437.393 84.3237 487.25 133.956C537.525 184.027 546.611 269.997 546.928 333.828C547.217 392.007 531.259 453.203 487.212 497.315C435.382 549.21 358.191 591.032 290.05 590.706Z" stroke="url(#paint1_linear_1689_12508)" stroke-width="0.321773" stroke-miterlimit="10"/>
<path d="M538.609 313.466C538.069 256.86 532.558 177.369 486.575 131.61C441.225 86.4832 362.274 82.6474 307.418 82.2657C189.402 81.465 75.2775 202.526 76.2365 313.457C76.6927 367.456 119.417 418.485 159.563 458.622C200.686 499.754 253.484 543.978 307.418 544.648C412.763 545.961 539.727 430.235 538.609 313.466Z" stroke="url(#paint2_linear_1689_12508)" stroke-width="0.321773" stroke-miterlimit="10"/>
<path d="M333.244 488.695C285.324 488.611 236.762 450.383 200.331 413.952C164.18 377.791 128.14 331.045 127.712 283.19C126.911 185.936 227.713 76.7178 333.216 77.6861C382.104 78.1423 450.916 83.2722 490.959 123.306C531.43 163.768 538.245 232.952 538.72 283.19C539.726 387.521 427.035 488.862 333.244 488.695Z" stroke="url(#paint3_linear_1689_12508)" stroke-width="0.321773" stroke-miterlimit="10"/>
<path d="M544.91 245.848C544.714 201.075 534.808 144.273 500.025 109.537C465.242 74.8007 409.39 66.4867 365.027 66.0305C270.473 65.0994 185.033 156.786 185.219 245.848C185.387 327.107 285.034 425.535 365.027 425.656C451.538 425.833 545.357 339.108 544.91 245.848Z" stroke="url(#paint4_linear_1689_12508)" stroke-width="0.321773" stroke-miterlimit="10"/>
<path d="M400.568 358.392C323.47 358.392 246.475 281.76 246.438 204.262C246.438 122.332 317.409 50.0941 400.568 50.1406C487.497 50.1406 554.643 117.109 554.689 204.262C554.736 286.974 481.409 358.43 400.568 358.392Z" stroke="url(#paint5_linear_1689_12508)" stroke-width="0.321773" stroke-miterlimit="10"/>
<path d="M565.669 161.283C565.613 93.5795 505.479 32.5139 437.188 32.849C369.736 33.1842 308.707 91.9875 308.754 161.33C308.754 229.881 368.749 289.736 437.235 289.811C506.279 289.764 565.716 228.643 565.669 161.283Z" stroke="url(#paint6_linear_1689_12508)" stroke-width="0.321773" stroke-miterlimit="10"/>
<path d="M472.644 222.51C417.062 222.966 370.092 175.205 369.887 119.763C369.682 65.7541 422.611 16.1958 472.644 16.9779C521.057 17.7693 575.187 69.0126 575.392 119.735C575.606 171.527 525.871 222.072 472.644 222.51Z" stroke="url(#paint7_linear_1689_12508)" stroke-width="0.321773" stroke-miterlimit="10"/>
<path d="M581.471 82.5084C581.117 47.6323 538.486 5.79225 504.41 5.44777C469.432 5.09398 426.996 42.9679 427.35 82.5084C427.713 124.451 462.794 159.206 504.41 159.569C543.951 159.923 581.843 118.604 581.471 82.5084Z" stroke="url(#paint8_linear_1689_12508)" stroke-width="0.321773" stroke-miterlimit="10"/>
<path d="M530.101 103.764C502.068 104.202 478.895 80.1812 478.727 52.3903C478.551 26.0331 506.602 0.253109 530.101 1.01655C552.073 1.7055 581.214 28.7144 581.475 52.3903C581.754 77.2765 555.788 103.364 530.101 103.764Z" stroke="url(#paint9_linear_1689_12508)" stroke-width="0.321773" stroke-miterlimit="10"/>
<path d="M572.983 32.2327C572.797 19.4125 558.748 7.09513 547.297 6.54583C534.858 5.91273 521.666 18.8074 521.61 32.2327C521.544 45.9746 533.238 58.5992 547.297 57.9196C560.052 57.3144 573.17 45.5184 572.983 32.2327Z" stroke="url(#paint10_linear_1689_12508)" stroke-width="0.321773" stroke-miterlimit="10"/>
<path d="M553.562 24.8906C553.004 70.5944 523.77 119.715 504.395 159.6C477.396 215.163 448.003 269.572 418.9 324.056C388.837 380.317 358.514 436.495 330.704 493.93C311.963 532.762 284.507 579.695 283.566 624.003" stroke="url(#paint11_linear_1689_12508)" stroke-width="0.321773" stroke-miterlimit="10"/>
<path d="M553.56 24.8906C576.575 54.2923 558.289 111.476 550.692 143.391C538.878 193.033 523.553 241.791 509.467 290.818C486.48 370.886 453.997 465.115 471.788 549.232" stroke="url(#paint12_linear_1689_12508)" stroke-width="0.321773" stroke-miterlimit="10"/>
<path d="M553.561 24.8906C584.284 32.3388 580.886 74.7933 578.512 98.674C574.695 137.079 565.357 174.859 557.099 212.482C549.446 247.349 541.43 282.541 538.394 318.181C536.244 343.467 533.739 385.829 560.739 399.924" stroke="url(#paint13_linear_1689_12508)" stroke-width="0.321773" stroke-miterlimit="10"/>
<path d="M553.562 24.8885C578.169 16.7048 576.121 34.8318 570.973 53.8619C564.781 76.7743 555.266 98.8581 546.961 121.035C542.399 133.213 505.717 219.304 543.601 213.374" stroke="url(#paint14_linear_1689_12508)" stroke-width="0.321773" stroke-miterlimit="10"/>
<path d="M553.562 24.8882C562.499 3.31647 553.068 7.19883 538.041 16.6301C519.291 28.3516 502.132 43.1083 484.591 56.5336C470.393 67.3986 456.195 78.8781 440.61 87.6949C435.825 90.4135 411.218 102.386 419.429 83.7101" stroke="url(#paint15_linear_1689_12508)" stroke-width="0.321773" stroke-miterlimit="10"/>
<path d="M553.558 24.8913C547.06 -60.2971 271.989 142.284 240.27 61.7411" stroke="url(#paint16_linear_1689_12508)" stroke-width="0.321773" stroke-miterlimit="10"/>
<path d="M553.563 24.8866C528.155 -0.139244 474.249 22.0935 446.496 31.4875C403.976 45.9556 362.704 63.9522 321.031 80.6082C254.473 107.207 168.698 147.428 95.2773 128.416" stroke="url(#paint17_linear_1689_12508)" stroke-width="0.321773" stroke-miterlimit="10"/>
<path d="M553.559 24.8906C512.687 17.9545 461.062 51.5085 427.294 69.8217C377.214 96.9796 328.717 127.07 280.099 156.63C230.653 186.693 181.178 216.988 129.87 243.811C93.0015 263.083 49.3459 287.513 6.54688 288.5" stroke="url(#paint18_linear_1689_12508)" stroke-width="0.321773" stroke-miterlimit="10"/>
<path d="M553.559 24.8906C508.451 45.1496 468.836 84.476 431.502 116.047C383.815 156.351 336.976 197.651 289.931 238.7C206.493 311.496 123.325 390.502 29.0312 449.315" stroke="url(#paint19_linear_1689_12508)" stroke-width="0.321773" stroke-miterlimit="10"/>
<defs>
<linearGradient id="paint0_linear_1689_12508" x1="283.565" y1="58.8711" x2="283.565" y2="624.001" gradientUnits="userSpaceOnUse">
<stop stop-color="#FF5F6A"/>
<stop offset="1" stop-color="#FFA752"/>
</linearGradient>
<linearGradient id="paint1_linear_1689_12508" x1="290.052" y1="76.9453" x2="290.052" y2="590.708" gradientUnits="userSpaceOnUse">
<stop stop-color="#FF5F6A"/>
<stop offset="1" stop-color="#FFA752"/>
</linearGradient>
<linearGradient id="paint2_linear_1689_12508" x1="307.424" y1="82.2617" x2="307.424" y2="544.659" gradientUnits="userSpaceOnUse">
<stop stop-color="#FF5F6A"/>
<stop offset="1" stop-color="#FFA752"/>
</linearGradient>
<linearGradient id="paint3_linear_1689_12508" x1="333.217" y1="77.6797" x2="333.217" y2="488.695" gradientUnits="userSpaceOnUse">
<stop stop-color="#FF5F6A"/>
<stop offset="1" stop-color="#FFA752"/>
</linearGradient>
<linearGradient id="paint4_linear_1689_12508" x1="365.065" y1="66.0234" x2="365.065" y2="425.656" gradientUnits="userSpaceOnUse">
<stop stop-color="#FF5F6A"/>
<stop offset="1" stop-color="#FFA752"/>
</linearGradient>
<linearGradient id="paint5_linear_1689_12508" x1="400.563" y1="50.1406" x2="400.563" y2="358.392" gradientUnits="userSpaceOnUse">
<stop stop-color="#FF5F6A"/>
<stop offset="1" stop-color="#FFA752"/>
</linearGradient>
<linearGradient id="paint6_linear_1689_12508" x1="437.212" y1="32.8477" x2="437.212" y2="289.811" gradientUnits="userSpaceOnUse">
<stop stop-color="#FF5F6A"/>
<stop offset="1" stop-color="#FFA752"/>
</linearGradient>
<linearGradient id="paint7_linear_1689_12508" x1="472.639" y1="16.9687" x2="472.639" y2="222.513" gradientUnits="userSpaceOnUse">
<stop stop-color="#FF5F6A"/>
<stop offset="1" stop-color="#FFA752"/>
</linearGradient>
<linearGradient id="paint8_linear_1689_12508" x1="504.411" y1="5.44531" x2="504.411" y2="159.571" gradientUnits="userSpaceOnUse">
<stop stop-color="#FF5F6A"/>
<stop offset="1" stop-color="#FFA752"/>
</linearGradient>
<linearGradient id="paint9_linear_1689_12508" x1="530.102" y1="1" x2="530.102" y2="103.77" gradientUnits="userSpaceOnUse">
<stop stop-color="#FF5F6A"/>
<stop offset="1" stop-color="#FFA752"/>
</linearGradient>
<linearGradient id="paint10_linear_1689_12508" x1="547.297" y1="6.52344" x2="547.297" y2="57.9458" gradientUnits="userSpaceOnUse">
<stop stop-color="#FF5F6A"/>
<stop offset="1" stop-color="#FFA752"/>
</linearGradient>
<linearGradient id="paint11_linear_1689_12508" x1="418.564" y1="24.8906" x2="418.564" y2="624.003" gradientUnits="userSpaceOnUse">
<stop stop-color="#FF5F6A"/>
<stop offset="1" stop-color="#FFA752"/>
</linearGradient>
<linearGradient id="paint12_linear_1689_12508" x1="515.726" y1="24.8906" x2="515.726" y2="549.232" gradientUnits="userSpaceOnUse">
<stop stop-color="#FF5F6A"/>
<stop offset="1" stop-color="#FFA752"/>
</linearGradient>
<linearGradient id="paint13_linear_1689_12508" x1="558.569" y1="24.8906" x2="558.569" y2="399.924" gradientUnits="userSpaceOnUse">
<stop stop-color="#FF5F6A"/>
<stop offset="1" stop-color="#FFA752"/>
</linearGradient>
<linearGradient id="paint14_linear_1689_12508" x1="550.425" y1="22.8711" x2="550.425" y2="213.666" gradientUnits="userSpaceOnUse">
<stop stop-color="#FF5F6A"/>
<stop offset="1" stop-color="#FFA752"/>
</linearGradient>
<linearGradient id="paint15_linear_1689_12508" x1="487.4" y1="9.07422" x2="487.4" y2="93.9791" gradientUnits="userSpaceOnUse">
<stop stop-color="#FF5F6A"/>
<stop offset="1" stop-color="#FFA752"/>
</linearGradient>
<linearGradient id="paint16_linear_1689_12508" x1="396.914" y1="3.53125" x2="396.914" y2="81.0783" gradientUnits="userSpaceOnUse">
<stop stop-color="#FF5F6A"/>
<stop offset="1" stop-color="#FFA752"/>
</linearGradient>
<linearGradient id="paint17_linear_1689_12508" x1="324.42" y1="13.3867" x2="324.42" y2="133.35" gradientUnits="userSpaceOnUse">
<stop stop-color="#FF5F6A"/>
<stop offset="1" stop-color="#FFA752"/>
</linearGradient>
<linearGradient id="paint18_linear_1689_12508" x1="280.053" y1="23.9609" x2="280.053" y2="288.5" gradientUnits="userSpaceOnUse">
<stop stop-color="#FF5F6A"/>
<stop offset="1" stop-color="#FFA752"/>
</linearGradient>
<linearGradient id="paint19_linear_1689_12508" x1="291.295" y1="24.8906" x2="291.295" y2="449.315" gradientUnits="userSpaceOnUse">
<stop stop-color="#FF5F6A"/>
<stop offset="1" stop-color="#FFA752"/>
</linearGradient>
</defs>
</svg>
