<svg width="70" height="49" viewBox="0 0 70 49" fill="none" xmlns="http://www.w3.org/2000/svg">
<rect x="0.5" y="1" width="69" height="47" rx="5.5" fill="white" stroke="#D9D9D9"/>
<path fill-rule="evenodd" clip-rule="evenodd" d="M35.5 34.8139C33.1169 36.8704 30.0255 38.1119 26.6475 38.1119C19.1102 38.1119 13 31.9308 13 24.306C13 16.6811 19.1102 10.5 26.6475 10.5C30.0255 10.5 33.1169 11.7415 35.5 13.7981C37.8831 11.7415 40.9745 10.5 44.3525 10.5C51.8898 10.5 58 16.6811 58 24.306C58 31.9308 51.8898 38.1119 44.3525 38.1119C40.9745 38.1119 37.8831 36.8704 35.5 34.8139Z" fill="#ED0006"/>
<path fill-rule="evenodd" clip-rule="evenodd" d="M35.5 34.8139C38.4344 32.2816 40.2951 28.5136 40.2951 24.306C40.2951 20.0983 38.4344 16.3303 35.5 13.7981C37.8831 11.7415 40.9745 10.5 44.3525 10.5C51.8898 10.5 58 16.6811 58 24.306C58 31.9308 51.8898 38.1119 44.3525 38.1119C40.9745 38.1119 37.8831 36.8704 35.5 34.8139Z" fill="#F9A000"/>
<path fill-rule="evenodd" clip-rule="evenodd" d="M35.5001 13.7988C38.4345 16.3311 40.2951 20.0991 40.2951 24.3067C40.2951 28.5143 38.4345 32.2823 35.5001 34.8145C32.5657 32.2823 30.7051 28.5143 30.7051 24.3067C30.7051 20.0991 32.5657 16.3311 35.5001 13.7988Z" fill="#FF5E00"/>
</svg>
