<svg width="70" height="49" viewBox="0 0 70 49" fill="none" xmlns="http://www.w3.org/2000/svg">
<rect x="0.5" y="1" width="69" height="47" rx="5.5" fill="white" stroke="#D9D9D9"/>
<path fill-rule="evenodd" clip-rule="evenodd" d="M21.2505 33.0165H17.0099L13.8299 20.8847C13.679 20.3267 13.3585 19.8333 12.8871 19.6008C11.7106 19.0165 10.4142 18.5514 9 18.3169V17.8498H15.8313C16.7742 17.8498 17.4813 18.5514 17.5991 19.3663L19.2491 28.1173L23.4877 17.8498H27.6104L21.2505 33.0165ZM29.9675 33.0165H25.9626L29.2604 17.8498H33.2653L29.9675 33.0165ZM38.4467 22.0514C38.5646 21.2346 39.2717 20.7675 40.0967 20.7675C41.3931 20.6502 42.8052 20.8848 43.9838 21.4671L44.6909 18.2016C43.5123 17.7345 42.216 17.5 41.0395 17.5C37.1524 17.5 34.3239 19.6008 34.3239 22.5165C34.3239 24.7346 36.3274 25.8992 37.7417 26.6008C39.2717 27.3004 39.861 27.7675 39.7431 28.4671C39.7431 29.5165 38.5646 29.9836 37.3881 29.9836C35.9739 29.9836 34.5596 29.6338 33.2653 29.0494L32.5582 32.3169C33.9724 32.8992 35.5025 33.1338 36.9167 33.1338C41.2752 33.249 43.9838 31.1502 43.9838 28C43.9838 24.0329 38.4467 23.8004 38.4467 22.0514ZM58 33.0165L54.82 17.8498H51.4044C50.6972 17.8498 49.9901 18.3169 49.7544 19.0165L43.8659 33.0165H47.9887L48.8116 30.8004H53.8772L54.3486 33.0165H58ZM51.9936 21.9342L53.1701 27.6502H49.8723L51.9936 21.9342Z" fill="#172B85"/>
</svg>
