<svg width="66" height="58" viewBox="0 0 66 58" fill="none" xmlns="http://www.w3.org/2000/svg">
<path d="M7.3836 26.0469H7.38291C6.88629 26.0469 6.48365 26.4496 6.48365 26.9463V28.5783C6.48365 31.204 8.17324 33.4749 10.6882 34.2294L12.0435 34.6361C12.5194 34.7789 13.0208 34.509 13.1635 34.0333L13.1637 34.0326C13.3064 33.5569 13.0365 33.0554 12.5608 32.9127L11.2053 32.5061C9.47085 31.9855 8.28314 30.3891 8.28314 28.5782V26.9463C8.283 26.4496 7.88036 26.0469 7.3836 26.0469Z" fill="white"/>
<path d="M10.5665 39.1249L10.6123 39.1375L12.6517 46.1067L11.9318 56.1398H10.7982C10.3013 56.1398 9.89854 56.5426 9.89854 57.0395C9.89854 57.5364 10.3013 57.9392 10.7982 57.9392H20.8105L23.3027 45.1803L22.1308 37.0918C22.0098 36.2576 21.4163 35.5692 20.609 35.327L16.4415 34.0767C15.9657 33.934 15.4643 34.2039 15.3216 34.6797L15.3214 34.6804C15.1788 35.1561 15.4487 35.6574 15.9244 35.8001L20.0919 37.0504C20.2282 37.0914 20.3295 37.2089 20.35 37.3498L21.4779 45.1354L19.3285 56.1397H17.444L18.8726 45.1137L17.5034 39.147L11.0475 37.391C6.15409 36.0055 2.73671 31.4861 2.73671 26.4006V21.1735C3.05935 21.4924 3.4177 21.7783 3.81134 22.0189L6.32309 23.5536C7.28879 24.1436 8.37145 24.4386 9.4541 24.4386C10.5368 24.4386 11.6194 24.1436 12.585 23.5536L15.0967 22.0189C16.1518 21.3742 16.9664 20.4164 17.4551 19.3095C19.831 22.5986 23.6929 24.6288 27.8305 24.6288H39.0353C43.7969 24.6288 47.3551 29.5414 47.3551 33.934C47.3551 36.0686 46.5474 38.0984 45.0808 39.6496L44.6129 40.1447L44.5619 40.2305C43.3757 42.226 43.6449 44.7765 45.2491 46.4545C45.6858 46.9114 45.8349 47.5694 45.6381 48.1694L43.0239 56.1398H41.056L43.5317 48.0673L42.7478 47.7663C39.0664 46.3533 36.0913 43.9847 33.9052 40.7265C32.8667 39.1786 32.2624 37.7853 31.9569 36.9643C31.7958 36.5312 31.3346 36.2898 30.8871 36.4061L30.8852 36.4066C30.3714 36.5402 30.0823 37.0882 30.2668 37.5859C30.4059 37.9609 30.597 38.4328 30.8507 38.9742H25.1407C24.6441 38.9742 24.2414 39.3768 24.2414 39.8734V39.8743C24.2414 40.3709 24.6441 40.7735 25.1407 40.7735H27.6645C29.1243 43.0245 30.8413 44.8871 32.7742 46.3147C34.2821 47.4285 35.896 48.2504 37.6004 48.7823L35.2436 56.1398H33.9063C33.4095 56.1398 33.0068 56.5426 33.0068 57.0395C33.0068 57.5364 33.4095 57.9392 33.9063 57.9392H44.3273L47.3476 48.7304C47.7495 47.5047 47.4485 46.1611 46.562 45.2241C45.5438 44.1485 45.3438 42.5194 46.0616 41.2312L46.3883 40.8858C46.743 40.5103 47.0648 40.1111 47.3548 39.6934V43.7067C47.3548 51.0139 52.8901 57.0513 59.9878 57.8488L60.0444 57.8625H60.1065C60.5934 57.913 61.0873 57.9393 61.5871 57.9393H65.01C65.5223 57.9393 65.9375 57.5241 65.9375 57.012C65.9375 56.5419 65.5858 56.1472 65.1192 56.0918C61.6931 55.686 59.0272 52.7633 59.0272 49.2298V39.8174C59.0272 31.0941 52.4175 23.8866 43.9435 22.9371L43.8945 22.913H43.7213C43.1678 22.8584 42.6069 22.8298 42.0395 22.8298H27.8299C23.6551 22.8298 19.8073 20.4242 17.9701 16.6862V11.616C17.9701 11.5961 17.9688 11.5764 17.9686 11.5565H17.9701V1.73592C17.9701 1.26809 17.7987 0.808421 17.4636 0.481908C16.9017 -0.0652328 16.061 -0.144405 15.4189 0.239411C14.3802 0.859771 13.4885 1.65702 12.7686 2.60915C12.0942 3.50094 11.5843 4.52782 11.2673 5.61103H7.64063C7.32367 4.52796 6.81376 3.50108 6.13928 2.60915C5.42923 1.67031 4.55226 0.882056 3.53216 0.265432C3.1626 0.0421742 2.72246 -0.0533297 2.29933 0.0317934C1.48312 0.196088 0.9375 0.905447 0.9375 1.68775V11.5564H0.939022C0.938746 11.5763 0.9375 11.5959 0.9375 11.6159V16.8949C0.9375 17.0022 0.942206 17.1089 0.948019 17.2155H0.9375V26.4006C0.9375 32.2875 4.89344 37.5188 10.5665 39.1249ZM15.9909 40.6004L17.0468 45.2021L15.6297 56.1397H13.7359L14.4696 45.9121L12.6493 39.6913L15.9909 40.6004ZM29.8459 40.7734H31.8074C31.98 41.0631 32.1663 41.3607 32.3686 41.6645C33.3881 43.1963 34.9347 45.0652 37.1606 46.7281C33.9103 45.4474 31.5248 43.0925 29.8459 40.7734ZM37.1335 56.1398L39.3502 49.2199C39.964 49.3363 40.5878 49.4176 41.222 49.4626L39.1742 56.1398H37.1335ZM52.1527 38.1076C52.1773 38.5829 52.574 38.9531 53.0497 38.9531C53.5671 38.9531 53.976 38.5177 53.9486 38.001C53.7872 34.9611 52.8546 32.0229 51.2268 29.4503C50.4307 28.1923 49.4837 27.0465 48.4139 26.033C53.6136 28.4469 57.2287 33.7174 57.2287 39.8172V49.2296C57.2287 52.0183 58.546 54.5051 60.5914 56.1004C60.4862 56.0919 60.3824 56.0789 60.2777 56.068L60.2531 56.062H60.2207C60.2103 56.0608 60.1998 56.0598 60.1893 56.0589C56.6401 55.5308 53.9738 52.4406 53.9738 48.8377V42.3158C53.9738 41.8192 53.5713 41.4166 53.0745 41.4166H53.0738C52.5772 41.4166 52.1744 41.8192 52.1744 42.3158V48.8377C52.1744 50.2269 52.4937 51.5545 53.0643 52.746C50.6599 50.4774 49.1548 47.2656 49.1548 43.7069V33.9343C49.1548 31.4545 48.2549 28.9169 46.6709 26.8684C49.9266 29.6815 51.9251 33.7022 52.1527 38.1076ZM14.2044 3.69458C14.7443 2.98051 15.4055 2.37386 16.1716 1.88914V7.33508C15.3492 6.52689 14.2957 5.95345 13.1206 5.72355C13.3777 4.99426 13.7429 4.3047 14.2044 3.69458ZM2.73685 1.88914C3.50296 2.37386 4.16415 2.98051 4.70423 3.69458C5.1657 4.30484 5.53096 4.9944 5.78786 5.72355C4.61274 5.95345 3.55929 6.52689 2.73685 7.33508V1.88914ZM2.73685 11.616C2.73685 9.29706 4.6234 7.41038 6.94248 7.41038H11.966C14.2851 7.41038 16.1716 9.29692 16.1716 11.616V13.5906L15.0066 13.588C12.6893 13.588 10.7797 15.3668 10.5712 17.6307L9.43625 18.6774L8.35608 17.7442V17.5353C8.35608 16.0441 7.67108 13.5421 3.08274 13.5421H2.73685V11.616ZM2.73685 15.3415H3.08274C6.55673 15.3415 6.55673 16.8788 6.55673 17.5353V18.5676L8.25989 20.0389C8.59803 20.3311 9.01686 20.4766 9.43514 20.4766C9.87238 20.4766 10.3092 20.3175 10.6532 20.001L12.3517 18.4368V18.0422C12.3517 16.5783 13.5426 15.3873 15.0066 15.3873L16.1716 15.3899V16.895C16.1716 18.35 15.4004 19.7251 14.1588 20.4836L11.6471 22.0185C10.2947 22.8451 8.61422 22.8449 7.26152 22.0185L4.74977 20.4836C3.50822 19.7251 2.73699 18.35 2.73699 16.895L2.73685 15.3415Z" fill="white"/>
</svg>
