<svg width="66" height="65" viewBox="0 0 66 65" fill="none" xmlns="http://www.w3.org/2000/svg">
<path d="M12.0953 55.0656C11.7465 55.0656 11.3965 54.9321 11.1308 54.6651C9.54115 53.0713 9.54115 50.4791 11.1308 48.8853C12.7287 47.2943 15.3223 47.2957 16.9119 48.8867C17.4432 49.4179 18.3082 49.4166 18.8394 48.8853C19.3693 48.3554 19.3693 47.4905 18.8381 46.9592C18.0657 46.1882 17.6407 45.1611 17.6407 44.0686C17.6407 42.9762 18.0657 41.9504 18.8394 41.1794C20.3787 39.6388 23.0731 39.6375 24.6165 41.1808C25.13 41.6944 26.0277 41.6971 26.5426 41.1808C27.0738 40.6496 27.0738 39.7859 26.5426 39.2547C24.9516 37.6609 24.9516 35.0687 26.5426 33.4749C28.0846 31.9316 30.7776 31.9302 32.3223 33.4736C32.5825 33.731 32.9244 33.8727 33.2868 33.8727C33.6505 33.8727 33.9924 33.731 34.2498 33.4736C34.5073 33.2161 34.6489 32.8756 34.6489 32.5105C34.6489 32.1468 34.5073 31.8049 34.2498 31.5474C33.4775 30.7764 33.0511 29.7494 33.0511 28.6555C33.0511 27.5644 33.4775 26.5387 34.2498 25.769C35.0208 24.9981 36.0479 24.5717 37.139 24.5717C37.1404 24.5717 37.1404 24.5717 37.1417 24.5717C38.2329 24.573 39.2586 24.998 40.0296 25.7718C40.5608 26.3003 41.4258 26.3003 41.9571 25.769C42.4883 25.2378 42.4883 24.3742 41.9571 23.8416C41.1861 23.0719 40.7611 22.0448 40.7611 20.9524C40.7611 19.8612 41.1861 18.8342 41.9584 18.0632C43.5004 16.5198 46.1921 16.5184 47.7368 18.0618C48.2694 18.5958 49.1331 18.5917 49.6643 18.0632C49.9218 17.8057 50.0634 17.4638 50.0634 17.1001C50.0634 16.7364 49.9218 16.3959 49.6643 16.1398C48.0719 14.5433 48.0719 11.951 49.663 10.3573C51.2608 8.76625 53.853 8.76625 55.4441 10.3586C55.9753 10.8926 55.9753 11.7535 55.4427 12.2861C54.9101 12.8174 54.0478 12.816 53.5166 12.2848C52.9853 11.7522 52.1217 11.7522 51.5877 12.2848C51.0592 12.8147 51.0592 13.6797 51.5904 14.2136C52.3601 14.9819 52.7864 16.0063 52.7878 17.0987C52.7878 18.1898 52.3628 19.2169 51.5904 19.9893C50.0471 21.5326 47.3554 21.5326 45.8121 19.9893C45.2985 19.4771 44.4008 19.4717 43.8859 19.9893C43.6285 20.2467 43.4868 20.5887 43.4868 20.9524C43.4868 21.3174 43.6285 21.658 43.8846 21.9141C45.4783 23.5105 45.4783 26.1028 43.8846 27.6952C42.2922 29.2889 39.6986 29.2889 38.1048 27.6979C37.846 27.4391 37.5055 27.2961 37.1417 27.2961C36.778 27.2961 36.4348 27.4377 36.176 27.6965C35.9185 27.9526 35.7768 28.2932 35.7768 28.6569C35.7768 29.0219 35.9185 29.3639 36.176 29.6199C36.9483 30.3923 37.3733 31.4194 37.3733 32.5105C37.3733 33.603 36.9483 34.6301 36.176 35.4011C35.405 36.1721 34.3792 36.5971 33.2881 36.5971C32.197 36.5971 31.1699 36.1721 30.3976 35.3997C29.884 34.8862 28.985 34.8834 28.4714 35.3997C27.9402 35.931 27.9402 36.7959 28.4714 37.3272C29.2424 38.0982 29.6674 39.1253 29.6674 40.2164C29.6674 41.3075 29.2424 42.3346 28.4701 43.1056C26.9281 44.6489 24.235 44.6489 22.6917 43.1056C22.1781 42.592 21.2805 42.5893 20.7656 43.1056C20.5067 43.363 20.3651 43.7036 20.3651 44.0673C20.3651 44.4323 20.5067 44.7743 20.7642 45.0303C22.3566 46.6255 22.3566 49.2177 20.7656 50.8115C19.1704 52.4011 16.5782 52.4025 14.9858 50.8128C14.4532 50.2775 13.5896 50.2788 13.0556 50.8115C12.5271 51.3414 12.5271 52.2063 13.0583 52.7403C13.5896 53.2729 13.5882 54.1352 13.0556 54.6664C12.7927 54.9321 12.444 55.0656 12.0953 55.0656Z" fill="white"/>
<path d="M14.0227 61.3112C11.4755 61.3112 9.08074 60.3195 7.27993 58.5187C3.56252 54.8013 3.56252 48.7518 7.27993 45.0344L45.808 6.50502C47.6088 4.70422 50.0035 3.71255 52.5508 3.71255C55.0981 3.71255 57.4928 4.70422 59.2936 6.50502C63.011 10.2224 63.011 16.2719 59.2936 19.9893L20.7656 58.5187C18.9648 60.3195 16.57 61.3112 14.0227 61.3112ZM52.5508 6.43692C50.7309 6.43692 49.0214 7.14525 47.7341 8.43115L9.20606 46.9592C6.55116 49.6141 6.55116 53.9363 9.20606 56.5912C10.492 57.8771 12.2029 58.5854 14.0227 58.5854C15.8426 58.5854 17.5522 57.8771 18.8394 56.5912L57.3675 18.0632C60.0224 15.4083 60.0224 11.0861 57.3675 8.43115C56.0802 7.14525 54.3707 6.43692 52.5508 6.43692Z" fill="white"/>
<path d="M24.754 65.0013C24.7295 65.0013 24.705 65.0013 24.6805 65.0013C21.2369 64.9782 17.9499 63.4621 15.1765 60.6165L17.1285 58.7149C19.3816 61.0278 21.9983 62.2593 24.6982 62.277C27.1583 62.311 29.5694 61.2744 31.3606 59.4818L60.2567 30.5857C63.308 27.5344 64.9331 21.9563 59.468 16.2828L61.4295 14.3934C67.825 21.0327 66.4165 28.2768 62.1814 32.5119L33.2868 61.4079C31.001 63.6936 27.8952 65.0013 24.754 65.0013Z" fill="white"/>
<path d="M6.12616 51.0376C5.77199 51.0376 5.41918 50.9 5.15219 50.6276C-1.26097 44.0714 0.263312 36.6393 4.39073 32.5119L33.2881 3.61447C38.3391 -1.43515 45.1187 -1.17906 51.4215 4.30237C51.9896 4.79548 52.0495 5.65638 51.5564 6.22441C51.0633 6.79245 50.2024 6.84966 49.6343 6.35927C44.4553 1.85452 39.1987 1.55757 35.2143 5.5406L6.31686 34.438C2.99858 37.7576 1.95378 43.4597 7.09876 48.7219C7.62456 49.2599 7.61503 50.1222 7.07696 50.648C6.8127 50.9082 6.46943 51.0376 6.12616 51.0376Z" fill="white"/>
</svg>
