<svg width="71" height="71" viewBox="0 0 71 71" fill="none" xmlns="http://www.w3.org/2000/svg">
<path d="M35.188 67.6657V22.8929" stroke="white" stroke-width="5" stroke-linecap="round" stroke-linejoin="round"/>
<path d="M35.1884 42.7935L20.2642 35.3314" stroke="white" stroke-width="5" stroke-linecap="round" stroke-linejoin="round"/>
<path d="M35.188 35.3305L50.1122 27.8684" stroke="white" stroke-width="5" stroke-linecap="round" stroke-linejoin="round"/>
<path d="M36.5866 51.8719C38.8687 53.4262 41.4493 54.4886 44.1643 54.9915C46.8792 55.4944 49.6691 55.4268 52.3565 54.7929C55.0439 54.1591 57.57 52.9729 59.7741 51.3098C61.9782 49.6467 63.812 47.5431 65.159 45.1328C66.506 42.7226 67.3366 40.0583 67.5981 37.3096C67.8595 34.5609 67.5461 31.7878 66.6777 29.1668C65.8093 26.5458 64.4049 24.1342 62.5539 22.0854C60.7028 20.0366 58.4457 18.3954 55.926 17.2663C55.3727 16.9881 54.9331 16.5266 54.6823 15.9604C53.0704 12.1204 50.3603 8.84196 46.8921 6.53643C43.4239 4.2309 39.3521 3.00098 35.1875 3.00098C31.0229 3.00098 26.9511 4.2309 23.4829 6.53643C20.0147 8.84196 17.3046 12.1204 15.6927 15.9604C15.4418 16.5266 15.0023 16.9881 14.449 17.2663C11.9293 18.3954 9.67216 20.0366 7.82114 22.0854C5.97012 24.1342 4.56575 26.5458 3.69733 29.1668C2.82891 31.7878 2.51546 34.5609 2.77691 37.3096C3.03837 40.0583 3.86901 42.7226 5.216 45.1328C6.56298 47.5431 8.39684 49.6467 10.6009 51.3098C12.805 52.9729 15.3311 54.1591 18.0185 54.7929C20.7059 55.4268 23.4958 55.4944 26.2107 54.9915C28.9257 54.4886 31.5063 53.4262 33.7884 51.8719C34.204 51.599 34.6903 51.4537 35.1875 51.4537C35.6847 51.4537 36.171 51.599 36.5866 51.8719Z" stroke="white" stroke-width="5" stroke-linecap="round" stroke-linejoin="round"/>
</svg>
