<svg width="66" height="60" viewBox="0 0 66 60" fill="none" xmlns="http://www.w3.org/2000/svg">
<mask id="mask0_1324_168" style="mask-type:luminance" maskUnits="userSpaceOnUse" x="0" y="-1" width="66" height="61">
<path d="M65.5625 -0.00158691H0.5625V59.2934H65.5625V-0.00158691Z" fill="white"/>
</mask>
<g mask="url(#mask0_1324_168)">
<path d="M57.7056 21.8839C57.822 21.9469 57.9451 21.9956 58.0731 22.0289C61.8571 22.1794 63.6712 24.6776 64.6819 27.8605C65.5769 30.6794 65.557 33.63 65.2384 36.5711C65.0333 38.4634 64.9239 40.366 64.7357 42.2603C64.5899 43.8861 64.0765 45.4571 63.2337 46.8545C62.4207 48.1872 61.2907 49.1396 59.7177 49.36C57.4652 49.6758 55.1999 49.8992 52.9391 50.152C52.528 50.198 52.112 50.1971 51.5248 50.2262C51.7743 51.3716 51.9993 52.4337 52.238 53.4934C52.4315 54.3541 52.6619 55.207 52.8342 56.0719C52.9283 56.4772 52.9532 56.8949 52.9072 57.3085C52.8661 57.7307 52.6801 58.1257 52.3809 58.4266C52.0817 58.727 51.6877 58.9147 51.2659 58.9582C50.8432 59.008 50.4168 58.9023 50.0667 58.6603C49.7161 58.4187 49.4658 58.0577 49.3622 57.6454C49.1111 56.5613 48.9197 55.4647 48.7888 54.3599C48.5886 53.0864 48.4051 51.81 48.2219 50.5855H17.4574C17.1925 52.1383 16.9434 53.6832 16.6597 55.2223C16.5348 56.001 16.3546 56.7697 16.1204 57.5227C15.707 58.7486 14.824 59.3374 13.8541 59.1451C12.8612 58.9483 12.2109 57.9239 12.4635 56.6156C12.7795 54.9782 13.2623 53.3732 13.6697 51.7529C13.7696 51.355 13.8565 50.9543 13.9934 50.3658C12.5468 50.2042 11.182 50.0919 9.83226 49.8892C8.54564 49.7144 7.26976 49.4674 6.01058 49.1503C3.62355 48.5142 2.1215 46.9556 1.82234 44.4787C1.44376 41.3449 1.18865 38.1957 0.910431 35.0501C0.783692 33.617 0.652362 32.1765 0.665688 30.7407C0.641626 29.4905 0.770208 28.2421 1.04861 27.023C2.01381 23.3459 5.17459 21.1534 8.97232 21.3751C9.33133 21.396 9.68976 21.4295 10.0895 21.4613C9.65765 16.9234 9.8899 12.4765 10.2663 8.03131C10.5715 4.42655 12.2672 2.32566 15.7258 1.29154C18.4278 0.483443 21.2233 0.278073 24.0069 0.257945C32.1954 0.2011 40.3843 0.251174 48.5733 0.285172C49.5508 0.269947 50.5266 0.362932 51.4834 0.562547C54.4461 1.24879 56.2971 3.13265 56.8594 6.11698C57.2676 8.16695 57.5344 10.2424 57.6592 12.3288C57.7967 15.1126 57.701 17.9082 57.7056 20.6989C57.7064 21.1093 57.7056 21.52 57.7056 21.8839ZM51.2775 27.3222C51.5373 26.7837 51.8261 26.2597 52.1418 25.7522C52.6619 24.9885 53.5126 24.3456 53.7442 23.5173C53.9912 22.6358 53.6336 21.5992 53.622 20.6292C53.5871 17.6542 53.6572 14.6766 53.5557 11.7045C53.4587 9.94267 53.266 8.1873 52.978 6.44635C52.7605 4.94224 51.7954 4.0607 50.3327 3.76558C49.6502 3.6295 48.9553 3.56406 48.2592 3.57029C44.5858 3.59885 40.9124 3.63829 37.2398 3.71526C32.4986 3.81508 27.7548 3.88441 23.0189 4.10936C20.9908 4.20562 18.9665 4.59654 16.9646 4.97295C15.2768 5.28985 14.3989 6.3892 14.116 8.1297C13.3316 12.9593 13.0126 17.8233 12.8549 22.7029C12.8555 23.0627 12.9733 23.4125 13.1905 23.6993C14.4633 25.2519 15.3222 27.1016 15.6872 29.0758C15.7073 29.181 15.7603 29.277 15.8386 29.3499C17.6415 29.0026 19.3079 28.5086 21.0009 28.3865C26.8884 27.9622 32.782 27.5779 38.6788 27.353C42.804 27.1952 46.9386 27.3222 51.2775 27.3222ZM35.4427 46.5901V46.4778C40.8388 46.4778 46.2354 46.5255 51.6305 46.4546C53.7633 46.4272 55.8939 46.1554 58.0217 45.9594C58.5853 45.9246 59.1235 45.7161 59.5632 45.3626C60.0032 45.0095 60.3231 44.5284 60.4789 43.9864C60.677 43.3262 60.7868 42.6424 60.805 41.9537C60.8892 40.4696 60.805 38.9696 60.9812 37.4986C61.3346 34.8695 61.3843 32.2083 61.1287 29.5678C60.9861 28.4113 60.5295 27.3165 59.8081 26.4013C59.2793 25.6895 58.5844 25.4596 57.7366 25.5252C56.1956 25.6443 54.8518 26.8367 54.4097 28.6493C54.0015 30.3171 53.682 32.0078 53.3709 33.6972C53.0626 35.3684 52.1244 36.5518 50.7201 37.4456C49.6187 38.1503 48.3566 38.564 47.0517 38.6486C44.1292 38.8564 41.2078 39.1597 38.282 39.2105C32.6085 39.3093 26.9308 39.3346 21.2568 39.232C19.3758 39.1983 17.4963 38.7193 15.6298 38.3701C13.8245 38.032 12.9877 36.7381 12.7426 35.0436C12.5705 33.8523 12.5348 32.64 12.4619 31.4356C12.3425 29.4644 12.067 27.5493 10.792 25.9258C9.69792 24.533 8.31501 24.1404 6.7172 24.8743C5.57793 25.3978 4.64071 26.1879 4.3976 27.483C4.12364 28.7018 3.9771 29.9461 3.9603 31.1954C4.01714 33.5618 4.23849 35.9265 4.43457 38.2885C4.56919 39.9087 4.79954 41.521 4.94453 43.1409C5.06391 44.4741 5.73564 45.2806 7.04381 45.5582C7.31211 45.632 7.58456 45.6896 7.8597 45.7306C11.1459 46.0228 14.4291 46.4774 17.7206 46.5524C23.6248 46.6862 29.535 46.5901 35.4427 46.5901ZM50.3505 30.9601C49.6593 30.8342 48.962 30.7445 48.2613 30.6911C39.0032 30.5791 29.7572 30.8633 20.523 31.5438C19.3413 31.6298 18.1637 32.0144 17.0261 32.387C16.2086 32.6552 16.2646 33.4206 16.3149 34.155C16.3652 34.8894 16.815 35.1004 17.4079 35.1695C18.9287 35.3466 20.4484 35.5879 21.975 35.6504C30.4874 35.9991 38.9828 35.3417 47.4852 35.0926C48.5053 35.0626 49.3349 34.6185 49.7103 33.6888C50.0294 32.9 50.1143 32.0155 50.3505 30.9601Z" fill="white"/>
</g>
</svg>
