<svg width="66" height="49" viewBox="0 0 66 49" fill="none" xmlns="http://www.w3.org/2000/svg">
<path d="M14.1506 41.5149C14.1506 42.9172 14.2344 44.116 14.1299 45.2973C13.9949 46.822 13.245 47.6786 11.7335 47.8564C9.92774 48.0862 8.10616 48.167 6.28717 48.0976C4.74671 48.0219 4.0577 47.0849 3.99982 45.5303C3.95314 44.2878 3.90995 43.0435 3.91182 41.8002C3.91182 41.0898 3.69826 40.5929 2.9432 40.4833C1.27808 40.2421 0.859347 39.0625 0.813599 37.6336C0.768785 36.2351 0.772279 34.8347 0.759208 33.4352C0.735868 30.9475 0.735871 28.4596 0.68919 25.9724C0.642508 23.6416 1.56259 21.8452 3.51013 20.5625C3.88778 20.3138 4.22459 20.0033 4.5859 19.7168C4.49255 19.6185 4.47061 19.5791 4.43793 19.5637C1.94212 18.4016 1.64195 16.4213 3.70946 14.4715C5.17477 13.0896 6.99301 12.5603 8.96107 12.6469C9.70961 12.6798 9.98692 12.4335 10.1794 11.7679C10.6432 10.1644 11.2384 8.59678 11.6634 6.98392C12.5422 3.64825 14.7827 2.28126 18.0994 1.98405C27.5147 1.14003 36.9354 0.626359 46.3937 0.784656C48.0235 0.81174 49.2451 1.2773 50.0897 2.70944C51.7056 5.44999 53.3859 8.15273 54.9794 10.9061C55.3172 11.4898 55.59 11.6946 56.3044 11.66C57.5793 11.6046 58.8563 11.6722 60.1181 11.862C60.6796 11.9495 61.213 12.1659 61.6767 12.4943C62.1405 12.8226 62.5221 13.254 62.7913 13.7545C63.6945 15.3004 63.3279 16.9321 61.8489 17.9403C61.5971 18.1117 61.3354 18.2672 60.9662 18.5025C61.7009 18.9695 62.3144 19.4474 62.9989 19.7773C64.6561 20.5753 65.3083 21.9486 65.4659 23.6836C65.8261 27.6511 65.7905 31.6001 65.0348 35.5272C64.6945 37.2946 63.9573 38.7513 62.2283 39.5609C62.0224 39.6573 61.8425 40.0849 61.8631 40.3421C61.9499 41.4249 62.1597 42.4978 62.2457 43.5806C62.4531 46.1956 61.3425 47.436 58.755 47.5455C57.1625 47.6128 55.5704 47.6928 53.9776 47.7344C51.4524 47.7995 50.6185 47.0027 50.5232 44.4603C50.4737 43.7617 50.4744 43.0609 50.5256 42.3626C50.617 41.5128 50.4136 41.2136 49.4737 41.267C46.7966 41.4196 44.1131 41.5149 41.4321 41.5224C32.7229 41.5458 24.0139 41.521 15.3048 41.5145C14.8833 41.5145 14.4622 41.5149 14.1506 41.5149ZM29.0186 38.5933C29.0195 38.6421 29.0205 38.6915 29.0216 38.7406C35.8966 38.6239 42.7753 38.6083 49.6448 38.3461C52.9673 38.2194 56.2856 37.7175 59.5793 37.2142C61.4236 36.9321 61.7735 36.4419 61.9036 34.5683C62.1209 31.4357 62.2105 28.2945 62.3848 25.1592C62.4812 23.4249 61.9484 22.2491 60.2532 21.3799C58.2031 20.3292 56.1686 19.0918 55.0278 16.8943C54.3482 15.5868 53.6405 14.292 52.9211 13.0048C51.3891 10.2631 49.8009 7.55176 48.3176 4.7841C47.6405 3.5189 46.6864 3.14091 45.3087 3.1304C36.2561 3.09528 27.2078 3.54865 18.2037 4.48853C16.033 4.70659 14.5441 5.57374 14.0381 7.80138C13.9039 8.32821 13.7378 8.84639 13.5407 9.35306C12.5691 12.0539 11.6158 14.7618 10.5905 17.4421C10.3598 17.9693 9.99826 18.4287 9.54015 18.7769C8.02024 19.9846 6.5003 21.205 4.88256 22.2727C3.24685 23.3516 2.63253 24.6936 2.8496 26.6632C3.22795 30.0972 3.43521 33.5508 3.63524 37.0022C3.68192 37.7958 3.95057 38.1462 4.68978 38.1849C7.36061 38.3251 10.0308 38.5453 12.7028 38.5752C18.1395 38.6353 23.5793 38.5933 29.0181 38.5933H29.0186ZM55.8073 44.6738C56.5022 44.6197 57.197 44.5318 57.8926 44.5215C58.4634 44.5133 58.7564 44.3301 58.7408 43.7169C58.7191 42.904 58.7319 42.0901 58.7461 41.2769C58.7557 40.7512 58.5847 40.5011 57.9968 40.574C56.5374 40.7547 55.0676 40.8593 53.6142 41.0756C53.3688 41.1122 53.0249 41.5363 52.9954 41.8105C52.6938 44.5959 52.9442 44.8456 55.6913 44.6841C55.7298 44.6826 55.7685 44.6791 55.8066 44.6738H55.8073ZM5.75713 41.5483C5.9205 42.5622 6.07178 43.7083 6.3173 44.8338C6.37256 44.9811 6.46349 45.1127 6.58198 45.2162C6.70047 45.3198 6.84283 45.3923 6.99628 45.4275C8.15858 45.4642 9.32202 45.4251 10.4792 45.3094C10.763 45.2788 11.1647 44.826 11.2216 44.514C11.3419 43.7474 11.3819 42.9705 11.3409 42.1954C11.3346 41.9759 11.0578 41.5807 10.8974 41.5764C9.20381 41.5306 7.51071 41.5483 5.75666 41.5483H5.75713ZM56.5349 13.3663L56.3923 13.6527C56.7312 14.253 57.0544 14.8626 57.4115 15.4505C58.2497 16.8329 58.4538 16.8731 59.8645 16.0022C60.8215 15.4111 60.8681 14.6247 59.8375 14.2009C58.7973 13.7756 57.6405 13.6331 56.5349 13.3663ZM9.02526 14.5804C7.50278 14.8024 6.27971 15.2387 5.33163 16.2733C4.95606 16.683 4.92363 17.0204 5.59397 17.2852C7.34663 17.9763 7.84144 17.7799 8.5153 15.9574C8.65954 15.5663 8.80331 15.1764 9.02526 14.5794V14.5804Z" fill="white"/>
<path d="M29.9731 21.2216C26.5953 21.3211 23.2177 21.459 19.8392 21.5018C18.3318 21.5211 16.8196 21.3813 15.3139 21.2587C13.3659 21.1002 12.0812 18.9158 12.8083 17.0242C13.8763 14.2458 14.6664 11.3597 15.5735 8.51927C15.7205 8.01029 16.0015 7.55009 16.387 7.18675C16.7725 6.82338 17.2485 6.57013 17.7651 6.45346C19.2233 6.05465 20.7096 5.76673 22.2112 5.59217C26.7718 5.17473 31.3374 4.77919 35.9105 4.54573C38.6192 4.40774 41.3443 4.60037 44.0619 4.62837C45.8155 4.64637 47.1587 5.42594 47.9908 6.92159C49.5733 9.76488 51.1803 12.6096 51.7042 15.8983C51.7603 16.1596 51.8638 16.4084 52.0093 16.6324C53.1839 18.6186 52.5825 19.9998 50.3258 20.2454C47.5484 20.5478 44.7621 20.8205 41.9727 20.9477C37.9766 21.1301 33.9742 21.1691 29.9755 21.2692L29.9731 21.2216ZM48.9492 17.5369C47.7863 14.5521 46.7764 11.8722 45.6988 9.21994C44.866 7.16907 44.738 7.13407 42.5477 7.24541C36.2668 7.56528 29.9844 7.85502 23.7055 8.21178C22.0042 8.30868 20.313 8.59283 18.6192 8.80833C18.2288 8.83569 17.8585 8.99139 17.5658 9.25117C17.2731 9.51096 17.0745 9.86025 17.0009 10.2447C16.444 12.3436 15.79 14.4176 15.2688 16.5252C14.687 18.8777 14.8954 18.6118 16.8674 18.5658C24.1677 18.3951 31.4663 18.1621 38.765 17.9326C42.0605 17.8285 45.3528 17.6779 48.9492 17.5369Z" fill="white"/>
<path d="M32.0426 32.1119C28.8977 32.2371 25.7532 32.3666 22.6081 32.4834C22.1042 32.5021 21.5372 32.6032 21.1101 32.4147C20.6452 32.2097 20.1083 31.776 19.9664 31.3265C19.7594 30.6756 20.3275 30.2203 20.943 30.122C22.0164 29.951 23.0988 29.8419 24.1847 29.7951C29.9676 29.5461 35.7513 29.3158 41.536 29.1043C42.4681 29.1068 43.3991 29.1618 44.3251 29.2691C45.0442 29.3251 45.5093 29.7312 45.5299 30.4491C45.5509 31.175 45.0594 31.6065 44.3845 31.7078C43.4645 31.8567 42.5356 31.9413 41.6039 31.9611C38.4176 31.991 35.2318 31.9726 32.0442 31.9726C32.0428 32.0195 32.0426 32.0657 32.0426 32.1119Z" fill="white"/>
<path d="M23.9924 28.7594C23.5291 28.7594 23.0247 28.8736 22.6153 28.7256C22.2468 28.5923 21.7671 28.1951 21.7309 27.8706C21.6936 27.5327 22.0458 26.9766 22.3756 26.8118C22.9745 26.5363 23.6182 26.3714 24.2757 26.3249C28.5968 25.9133 32.9214 25.5379 37.2451 25.1538C37.3994 25.1363 37.5555 25.1401 37.7092 25.1651C38.4784 25.3135 39.2995 25.4207 39.4062 26.4352C39.4858 27.1898 38.8756 27.836 37.8105 27.9549C36.4247 28.1104 35.0257 28.1571 33.6311 28.2246C30.4173 28.3801 27.2027 28.5201 23.9882 28.6663L23.9924 28.7594Z" fill="white"/>
<path d="M53.638 31.0824C51.8987 31.0647 50.7465 30.2312 50.334 28.6923C49.9392 27.2214 50.7621 25.0968 52.0377 24.411C52.3855 24.2418 52.7643 24.1464 53.1505 24.1309C54.579 24.0352 55.8311 24.5656 56.9314 25.4094C57.9698 26.206 58.1647 27.6697 57.5068 28.9008C56.7977 30.2265 55.2511 31.099 53.638 31.0824Z" fill="white"/>
<path d="M14.8389 28.4982C14.8426 30.6345 13.03 32.453 10.9247 32.4254C10.4976 32.4226 10.0754 32.3341 9.68308 32.1654C9.29072 31.9966 8.93614 31.7509 8.64026 31.4428C8.34439 31.1347 8.1132 30.7705 7.96036 30.3716C7.80751 29.9726 7.7361 29.5471 7.75037 29.1201C7.78002 26.7968 9.36857 25.2796 11.7836 25.2678C13.5832 25.2596 14.8356 26.5841 14.8389 28.4982Z" fill="white"/>
</svg>
