<svg width="16" height="15" viewBox="0 0 16 15" fill="none" xmlns="http://www.w3.org/2000/svg">
<path d="M15.2448 2.0757C14.7984 1.43003 14.201 0.903421 13.5047 0.541766C12.8083 0.180112 12.0342 -0.00560852 11.2497 0.000792778C10.6408 -0.0108913 10.0364 0.106692 9.47627 0.345793C8.91614 0.584894 8.41299 0.940084 8 1.38795C7.58655 0.940671 7.08332 0.585877 6.52329 0.346823C5.96326 0.107768 5.35908 -0.0101513 4.75033 0.000792778C3.96583 -0.00560852 3.19168 0.180112 2.49533 0.541766C1.79899 0.903421 1.2016 1.43003 0.755224 2.0757C0.300051 2.79956 0.0413179 3.62967 0.00455174 4.48414C-0.0322145 5.33862 0.154257 6.18792 0.545568 6.94825C1.13937 8.28265 1.96341 9.50193 2.97991 10.5502C4.13098 11.7587 5.3903 12.859 6.74207 13.8374C7.10788 14.1028 7.54816 14.2458 8 14.2458C8.45184 14.2458 8.89212 14.1028 9.25794 13.8374C10.61 12.8594 11.8694 11.7591 13.0201 10.5502C14.0366 9.50193 14.8606 8.28265 15.4544 6.94825C15.8457 6.18792 16.0322 5.33862 15.9954 4.48414C15.9587 3.62967 15.7 2.79956 15.2448 2.0757ZM14.476 6.54026C13.9242 7.75611 13.1678 8.86803 12.2397 9.82748C11.1336 10.9836 9.92511 12.0371 8.62897 12.9748C8.44752 13.111 8.22682 13.1846 8 13.1846C7.77318 13.1846 7.55249 13.111 7.37103 12.9748C6.07521 12.0367 4.86672 10.9833 3.76029 9.82748C2.8276 8.87179 2.07057 7.75902 1.52396 6.54026C1.20674 5.93827 1.05073 5.26431 1.07114 4.58404C1.09155 3.90378 1.28769 3.2404 1.64044 2.65855C1.99088 2.16109 2.45729 1.7567 2.99921 1.48044C3.54114 1.20419 4.14222 1.06441 4.75033 1.07322C5.2451 1.0566 5.73716 1.15293 6.1892 1.35489C6.64125 1.55686 7.04142 1.85917 7.35939 2.2389C7.53497 2.40705 7.76862 2.5009 8.01165 2.5009C8.25467 2.5009 8.48832 2.40705 8.66391 2.2389C8.97942 1.86231 9.37583 1.56189 9.82356 1.36005C10.2713 1.15821 10.7588 1.06016 11.2497 1.07322C11.8578 1.06441 12.4589 1.20419 13.0008 1.48044C13.5427 1.7567 14.0091 2.16109 14.3596 2.65855C14.7123 3.2404 14.9085 3.90378 14.9289 4.58404C14.9493 5.26431 14.7933 5.93827 14.476 6.54026Z" fill="url(#paint0_linear_716_19374)"/>
<defs>
<linearGradient id="paint0_linear_716_19374" x1="8" y1="0" x2="8" y2="14.2458" gradientUnits="userSpaceOnUse">
<stop stop-color="#FF5F6A"/>
<stop offset="1" stop-color="#FFA752"/>
</linearGradient>
</defs>
</svg>
