<svg width="32" height="32" viewBox="0 0 32 32" fill="none" xmlns="http://www.w3.org/2000/svg">
<path d="M15.4661 0.384997C15.6302 0.296509 15.8137 0.250183 16.0001 0.250183C16.1866 0.250183 16.3701 0.296509 16.5341 0.384997L31.1591 8.26C31.3377 8.35639 31.4869 8.4993 31.5909 8.67359C31.6949 8.84788 31.7498 9.04705 31.7498 9.25C31.7498 9.45295 31.6949 9.65211 31.5909 9.8264C31.4869 10.0007 31.3377 10.1436 31.1591 10.24L16.5341 18.115C16.3701 18.2035 16.1866 18.2498 16.0001 18.2498C15.8137 18.2498 15.6302 18.2035 15.4661 18.115L0.841143 10.24C0.662548 10.1436 0.513355 10.0007 0.409371 9.8264C0.305388 9.65211 0.250488 9.45295 0.250488 9.25C0.250488 9.04705 0.305388 8.84788 0.409371 8.67359C0.513355 8.4993 0.662548 8.35639 0.841143 8.26L15.4661 0.384997Z" fill="url(#paint0_linear_724_639)"/>
<path d="M0.842608 15.01C2.12549 14.3189 3.66979 14.3188 4.95279 15.0096L14.3996 20.0965C14.8915 20.3614 15.4414 20.5001 16.0001 20.5001C16.5588 20.5001 17.1087 20.3614 17.6006 20.0965L27.0469 15.0087C28.3301 14.3176 29.8748 14.318 31.1576 15.01C31.3362 15.1064 31.4854 15.2493 31.5894 15.4236C31.6934 15.5979 31.7483 15.797 31.7483 16C31.7483 16.2029 31.6934 16.4021 31.5894 16.5764C31.4854 16.7507 31.3362 16.8936 31.1576 16.99L16.5326 24.865C16.3689 24.953 16.186 24.999 16.0001 24.999C15.8143 24.999 15.6313 24.953 15.4676 24.865L0.842608 16.99C0.664012 16.8936 0.514819 16.7507 0.410836 16.5764C0.306853 16.4021 0.251953 16.2029 0.251953 16C0.251953 15.797 0.306853 15.5979 0.410836 15.4236C0.514819 15.2493 0.664012 15.1064 0.842608 15.01Z" fill="url(#paint1_linear_724_639)"/>
<path d="M14.3996 26.8465L4.9533 21.7587C3.67011 21.0676 2.12537 21.068 0.842608 21.76C0.664012 21.8564 0.514819 21.9993 0.410836 22.1736C0.306853 22.3479 0.251953 22.547 0.251953 22.75C0.251953 22.9529 0.306853 23.1521 0.410836 23.3264C0.514819 23.5007 0.664012 23.6436 0.842608 23.74L15.4676 31.615C15.7991 31.795 16.2011 31.795 16.5326 31.615L31.1576 23.74C31.3362 23.6436 31.4854 23.5007 31.5894 23.3264C31.6934 23.1521 31.7483 22.9529 31.7483 22.75C31.7483 22.547 31.6934 22.3479 31.5894 22.1736C31.4854 21.9993 31.3362 21.8564 31.1576 21.76C29.8747 21.0689 28.3304 21.0689 27.0475 21.7599L17.6006 26.848C17.1086 27.1127 16.5586 27.2511 15.9999 27.2509C15.4412 27.2506 14.8914 27.1117 14.3996 26.8465Z" fill="url(#paint2_linear_724_639)"/>
<defs>
<linearGradient id="paint0_linear_724_639" x1="0.250488" y1="9.25" x2="31.7498" y2="9.25" gradientUnits="userSpaceOnUse">
<stop stop-color="#FF5F6A"/>
<stop offset="1" stop-color="#FFA752"/>
</linearGradient>
<linearGradient id="paint1_linear_724_639" x1="0.251953" y1="19.4502" x2="31.7483" y2="19.4502" gradientUnits="userSpaceOnUse">
<stop stop-color="#FF5F6A"/>
<stop offset="1" stop-color="#FFA752"/>
</linearGradient>
<linearGradient id="paint2_linear_724_639" x1="0.251953" y1="26.2007" x2="31.7483" y2="26.2007" gradientUnits="userSpaceOnUse">
<stop stop-color="#FF5F6A"/>
<stop offset="1" stop-color="#FFA752"/>
</linearGradient>
</defs>
</svg>
