<svg width="24" height="25" viewBox="0 0 24 25" fill="none" xmlns="http://www.w3.org/2000/svg">
<path d="M16.9998 2.49982C18.3248 2.50378 19.5943 3.03187 20.5312 3.96876C21.4681 4.90566 21.9962 6.17522 22.0002 7.50018V17.4998C21.9962 18.8248 21.4681 20.0943 20.5312 21.0312C19.5943 21.9681 18.3248 22.4962 16.9998 22.5002H7.00018C5.67522 22.4962 4.40566 21.9681 3.46876 21.0312C2.53187 20.0943 2.00378 18.8248 1.99982 17.4998V7.50018C2.00378 6.17522 2.53187 4.90566 3.46876 3.96876C4.40566 3.03187 5.67522 2.50378 7.00018 2.49982H16.9998ZM16.9998 0.5H7.00018C3.15 0.5 0 3.65 0 7.50018V17.4998C0 21.35 3.15 24.5 7.00018 24.5H16.9998C20.85 24.5 24 21.35 24 17.4998V7.50018C24 3.65 20.85 0.5 16.9998 0.5Z" fill="white"/>
<path d="M18.4998 7.50061C18.2031 7.50061 17.9131 7.41264 17.6665 7.24782C17.4198 7.08299 17.2275 6.84873 17.114 6.57464C17.0005 6.30055 16.9708 5.99895 17.0286 5.70798C17.0865 5.417 17.2294 5.14973 17.4392 4.93995C17.6489 4.73017 17.9162 4.58731 18.2072 4.52943C18.4982 4.47156 18.7998 4.50126 19.0738 4.61479C19.3479 4.72832 19.5822 4.92058 19.747 5.16726C19.9118 5.41393 19.9998 5.70394 19.9998 6.00061C20.0002 6.19771 19.9617 6.39296 19.8865 6.57514C19.8113 6.75732 19.7008 6.92284 19.5614 7.06222C19.4221 7.20159 19.2565 7.31206 19.0743 7.38729C18.8922 7.46253 18.6969 7.50103 18.4998 7.50061ZM12 8.50025C12.7912 8.50025 13.5646 8.73486 14.2224 9.17441C14.8802 9.61395 15.3929 10.2387 15.6957 10.9696C15.9984 11.7006 16.0777 12.5049 15.9233 13.2808C15.769 14.0568 15.388 14.7696 14.8286 15.329C14.2691 15.8884 13.5564 16.2694 12.7804 16.4237C12.0044 16.5781 11.2001 16.4989 10.4692 16.1961C9.73826 15.8934 9.11352 15.3806 8.67398 14.7228C8.23443 14.065 7.99982 13.2916 7.99982 12.5004C8.00096 11.4399 8.42277 10.4231 9.1727 9.67313C9.92263 8.9232 10.9394 8.50139 12 8.50025ZM12 6.50043C10.8133 6.50043 9.65328 6.85233 8.66658 7.51161C7.67989 8.1709 6.91085 9.10798 6.45673 10.2043C6.0026 11.3007 5.88378 12.5071 6.11529 13.671C6.3468 14.8349 6.91825 15.904 7.75736 16.7431C8.59648 17.5822 9.66557 18.1536 10.8295 18.3851C11.9933 18.6167 13.1997 18.4978 14.2961 18.0437C15.3925 17.5896 16.3295 16.8205 16.9888 15.8339C17.6481 14.8472 18 13.6871 18 12.5004C18 10.9091 17.3679 9.38301 16.2426 8.25779C15.1174 7.13257 13.5913 6.50043 12 6.50043Z" fill="white"/>
</svg>
