<svg width="24" height="25" viewBox="0 0 24 25" fill="none" xmlns="http://www.w3.org/2000/svg">
<path d="M22.0805 0.5H2.05071C0.956248 0.5 0 1.2875 0 2.36911V22.4434C0 23.5309 0.956248 24.5 2.05071 24.5H22.0746C23.175 24.5 24 23.5245 24 22.4434V2.36911C24.0064 1.2875 23.175 0.5 22.0805 0.5ZM7.43945 20.5052H4.00124V9.815H7.43945V20.5052ZM5.83928 8.18964H5.81463C4.71428 8.18964 4.00178 7.37054 4.00178 6.34518C4.00178 5.30107 4.73303 4.50125 5.85803 4.50125C6.98303 4.50125 7.67142 5.29518 7.69606 6.34518C7.69552 7.37054 6.98302 8.18964 5.83928 8.18964ZM20.0051 20.5052H16.5669V14.66C16.5669 13.2596 16.0666 12.3029 14.8227 12.3029C13.8723 12.3029 13.3098 12.9457 13.0596 13.572C12.9659 13.797 12.9407 14.1034 12.9407 14.4162V20.5052H9.50249V9.815H12.9407V11.3027C13.441 10.5902 14.2227 9.56482 16.0414 9.56482C18.2984 9.56482 20.0057 11.0525 20.0057 14.2598L20.0051 20.5052Z" fill="white"/>
</svg>
