<svg width="29" height="25" viewBox="0 0 29 25" fill="none" xmlns="http://www.w3.org/2000/svg">
<path d="M28.8137 5.79923C28.8137 2.98681 26.9386 0.724369 24.6217 0.724369C21.4834 0.562498 18.2828 0.5 15.012 0.5H13.9923C10.7294 0.5 7.52317 0.562498 4.38488 0.724994C2.07365 0.724994 0.198612 2.99993 0.198612 5.81236C0.0569923 8.03667 -0.00305439 10.2616 0.00034448 12.4865C-0.0053203 14.7115 0.0588805 16.9385 0.192947 19.1676C0.192947 21.98 2.06799 24.2612 4.37922 24.2612C7.67612 24.43 11.058 24.505 14.4965 24.4987C17.9407 24.5112 21.3131 24.4321 24.6138 24.2612C26.9307 24.2612 28.8057 21.98 28.8057 19.1676C28.9417 16.9364 29.004 14.7115 28.9983 12.4803C29.0112 10.2554 28.9496 8.02834 28.8137 5.79923ZM11.7264 18.6176V6.33672L19.9404 12.474L11.7264 18.6176Z" fill="white"/>
</svg>
