<svg width="22" height="19" viewBox="0 0 22 19" fill="none" xmlns="http://www.w3.org/2000/svg">
<path d="M11.2821 4.47059H2.25641C1.65797 4.47059 1.08405 4.70609 0.660887 5.12529C0.237728 5.54449 0 6.11305 0 6.70588V11.1765C0 11.7693 0.237728 12.3379 0.660887 12.7571C1.08405 13.1763 1.65797 13.4118 2.25641 13.4118H3.38462V17.8824C3.38462 18.1788 3.50348 18.4631 3.71506 18.6726C3.92664 18.8822 4.2136 19 4.51282 19H6.76923C7.06845 19 7.35541 18.8822 7.56699 18.6726C7.77857 18.4631 7.89744 18.1788 7.89744 17.8824V13.4118H11.2821L16.9231 17.8824V0L11.2821 4.47059ZM22 8.94118C22 10.8524 20.9169 12.5847 19.1795 13.4118V4.47059C20.9056 5.30882 22 7.04118 22 8.94118Z" fill="white"/>
</svg>
