<svg width="21" height="20" viewBox="0 0 21 20" fill="none" xmlns="http://www.w3.org/2000/svg">
<path d="M19.2913 2.49464C18.7805 1.98364 18.1741 1.57828 17.5066 1.30172C16.8392 1.02516 16.1238 0.882812 15.4013 0.882812C14.6788 0.882812 13.9634 1.02516 13.2959 1.30172C12.6285 1.57828 12.022 1.98364 11.5113 2.49464L10.4513 3.55464L9.39129 2.49464C8.3596 1.46295 6.96032 0.883347 5.50129 0.883347C4.04226 0.883347 2.64298 1.46295 1.61129 2.49464C0.579599 3.52633 1.08706e-08 4.9256 0 6.38464C-1.08706e-08 7.84367 0.579599 9.24295 1.61129 10.2746L2.67129 11.3346L10.4513 19.1146L18.2313 11.3346L19.2913 10.2746C19.8023 9.76388 20.2076 9.15745 20.4842 8.48999C20.7608 7.82253 20.9031 7.10713 20.9031 6.38464C20.9031 5.66215 20.7608 4.94674 20.4842 4.27928C20.2076 3.61182 19.8023 3.00539 19.2913 2.49464Z" fill="url(#paint0_linear_706_18141)"/>
<defs>
<linearGradient id="paint0_linear_706_18141" x1="10.4516" y1="0.882812" x2="10.4516" y2="19.1146" gradientUnits="userSpaceOnUse">
<stop stop-color="#FF6169"/>
<stop offset="1" stop-color="#FFA752"/>
</linearGradient>
</defs>
</svg>
