<svg width="23" height="20" viewBox="0 0 23 20" fill="none" xmlns="http://www.w3.org/2000/svg">
<path d="M20.5779 2.49464C20.0672 1.98364 19.4607 1.57828 18.7933 1.30172C18.1258 1.02516 17.4104 0.882812 16.6879 0.882812C15.9654 0.882812 15.25 1.02516 14.5826 1.30172C13.9151 1.57828 13.3087 1.98364 12.7979 2.49464L11.7379 3.55464L10.6779 2.49464C9.64622 1.46295 8.24694 0.883347 6.78791 0.883347C5.32888 0.883347 3.9296 1.46295 2.89791 2.49464C1.86622 3.52633 1.28662 4.9256 1.28662 6.38464C1.28662 7.84367 1.86622 9.24295 2.89791 10.2746L3.95791 11.3346L11.7379 19.1146L19.5179 11.3346L20.5779 10.2746C21.0889 9.76388 21.4943 9.15745 21.7708 8.48999C22.0474 7.82253 22.1897 7.10713 22.1897 6.38464C22.1897 5.66215 22.0474 4.94674 21.7708 4.27928C21.4943 3.61182 21.0889 3.00539 20.5779 2.49464Z" stroke="url(#paint0_linear_991_13344)" stroke-linecap="round" stroke-linejoin="round"/>
<defs>
<linearGradient id="paint0_linear_991_13344" x1="11.7382" y1="0.882812" x2="11.7382" y2="19.1146" gradientUnits="userSpaceOnUse">
<stop stop-color="#FF6468"/>
<stop offset="1" stop-color="#FFA254"/>
</linearGradient>
</defs>
</svg>
