<svg width="36" height="36" viewBox="0 0 36 36" fill="none" xmlns="http://www.w3.org/2000/svg">
<rect x="0.5" y="0.496094" width="35" height="35" rx="7.5" stroke="url(#paint0_linear_668_14811)"/>
<path d="M26.8382 10.4907C26.3274 9.97974 25.721 9.57438 25.0535 9.29782C24.3861 9.02125 23.6707 8.87891 22.9482 8.87891C22.2257 8.87891 21.5103 9.02125 20.8428 9.29782C20.1754 9.57438 19.5689 9.97974 19.0582 10.4907L17.9982 11.5507L16.9382 10.4907C15.9065 9.45904 14.5072 8.87944 13.0482 8.87944C11.5891 8.87944 10.1899 9.45904 9.15817 10.4907C8.12647 11.5224 7.54688 12.9217 7.54688 14.3807C7.54687 15.8398 8.12647 17.239 9.15817 18.2707L10.2182 19.3307L17.9982 27.1107L25.7782 19.3307L26.8382 18.2707C27.3492 17.76 27.7545 17.1535 28.0311 16.4861C28.3076 15.8186 28.45 15.1032 28.45 14.3807C28.45 13.6582 28.3076 12.9428 28.0311 12.2754C27.7545 11.6079 27.3492 11.0015 26.8382 10.4907Z" stroke="url(#paint1_linear_668_14811)" stroke-linecap="round" stroke-linejoin="round"/>
<defs>
<linearGradient id="paint0_linear_668_14811" x1="-0.0256698" y1="17.9453" x2="35.9743" y2="17.9453" gradientUnits="userSpaceOnUse">
<stop stop-color="#FF5F6A"/>
<stop offset="1" stop-color="#FFA752"/>
</linearGradient>
<linearGradient id="paint1_linear_668_14811" x1="17.9984" y1="8.87891" x2="17.9984" y2="27.1107" gradientUnits="userSpaceOnUse">
<stop stop-color="#FF6468"/>
<stop offset="1" stop-color="#FFA254"/>
</linearGradient>
</defs>
</svg>
