<svg width="201" height="161" viewBox="0 0 201 161" fill="none" xmlns="http://www.w3.org/2000/svg">
<path d="M9.33977 153.243C12.1278 158.461 18.0451 160.701 18.0451 160.701C18.0451 160.701 19.4421 154.481 16.654 149.262C13.8659 144.044 7.94863 141.803 7.94863 141.803C7.94863 141.803 6.5517 148.024 9.33977 153.243Z" fill="#FFA453"/>
<path d="M11.2561 151.526C16.2897 154.582 18.2283 160.653 18.2283 160.653C18.2283 160.653 12.0058 161.769 6.97222 158.712C1.93861 155.656 0 149.585 0 149.585C0 149.585 6.2225 148.469 11.2561 151.526Z" fill="#FF6269"/>
<path d="M124.11 0H92.7042V0.452825H124.11V0Z" fill="#FF855D"/>
<path d="M115.586 0.339618H115.137V4.52824H115.586V0.339618Z" fill="#FF855D"/>
<path d="M101.902 0.339618H101.453V4.52824H101.902V0.339618Z" fill="#FF855D"/>
<path d="M140.038 21.7356H108.632V22.1884H140.038V21.7356Z" fill="#FF855D"/>
<path d="M117.605 17.6602H117.156V21.8488H117.605V17.6602Z" fill="#FF855D"/>
<path d="M131.289 17.6602H130.84V21.8488H131.289V17.6602Z" fill="#FF855D"/>
<path d="M181.763 31.9241H150.357V32.377H181.763V31.9241Z" fill="#FF855D"/>
<path d="M159.33 27.8487H158.882V32.0373H159.33V27.8487Z" fill="#FF855D"/>
<path d="M173.014 27.8487H172.566V32.0373H173.014V27.8487Z" fill="#FF855D"/>
<path d="M178.623 136.979H147.216V137.432H178.623V136.979Z" fill="#FF855D"/>
<path d="M156.19 132.904H155.741V137.093H156.19V132.904Z" fill="#FF855D"/>
<path d="M169.874 132.904H169.425V137.093H169.874V132.904Z" fill="#FF855D"/>
<path d="M125.008 64.3011H93.6015V64.7539H125.008V64.3011Z" fill="#FF855D"/>
<path d="M102.575 60.2257H102.126V64.4143H102.575V60.2257Z" fill="#FF855D"/>
<path d="M116.259 60.2257H115.81V64.4143H116.259V60.2257Z" fill="#FF855D"/>
<path d="M134.878 118.866H103.472V119.319H134.878V118.866Z" fill="#FF855D"/>
<path d="M112.445 114.791H111.997V118.98H112.445V114.791Z" fill="#FF855D"/>
<path d="M126.129 114.791H125.681V118.98H126.129V114.791Z" fill="#FF855D"/>
<path d="M185.128 102.338H153.722V102.791H185.128V102.338Z" fill="#FF855D"/>
<path d="M162.695 98.2629H162.247V102.452H162.695V98.2629Z" fill="#FF855D"/>
<path d="M176.379 98.2629H175.931V102.452H176.379V98.2629Z" fill="#FF855D"/>
<path d="M81.221 150.853H28.1028V150.468H80.8388V131.761H32.5683L30.2234 126.831L30.5679 126.664L32.8088 131.376H81.221V150.853Z" fill="#FFA453"/>
<path d="M35.1724 160.303C37.3885 160.303 39.185 158.489 39.185 156.253C39.185 154.016 37.3885 152.203 35.1724 152.203C32.9564 152.203 31.1599 154.016 31.1599 156.253C31.1599 158.489 32.9564 160.303 35.1724 160.303Z" fill="#3F3D56"/>
<path d="M74.7246 160.303C76.9406 160.303 78.7371 158.489 78.7371 156.253C78.7371 154.016 76.9406 152.203 74.7246 152.203C72.5085 152.203 70.712 154.016 70.712 156.253C70.712 158.489 72.5085 160.303 74.7246 160.303Z" fill="#3F3D56"/>
<path d="M121.346 72.7503C122.718 72.7503 123.83 71.6279 123.83 70.2433C123.83 68.8587 122.718 67.7363 121.346 67.7363C119.975 67.7363 118.862 68.8587 118.862 70.2433C118.862 71.6279 119.975 72.7503 121.346 72.7503Z" fill="#3F3D56"/>
<path d="M86.9023 125.397H27.1971L14.2783 82.7783H100.207L86.9023 125.397ZM27.4798 125.012H86.622L99.6857 83.164H14.7948L27.4798 125.012Z" fill="#FFA453"/>
<path d="M82.2417 123.18H29.8005L18.4534 85.3817H93.9273L82.2417 123.18Z" fill="#FF855D"/>
<path d="M101.277 78.9708L100.908 78.8719L103.43 69.279H118.098V69.6648H103.724L101.277 78.9708Z" fill="#FFA453"/>
<path d="M95.9128 95.6991H18.4531V96.0847H95.9128V95.6991Z" fill="#FFA453"/>
<path d="M91.4769 109.909H22.7603V110.294H91.4769V109.909Z" fill="#FFA453"/>
<path d="M57.4324 82.9712H57.0503V125.205H57.4324V82.9712Z" fill="#FFA453"/>
<path d="M74.5418 82.9591L71.7986 125.191L72.18 125.217L74.9232 82.9843L74.5418 82.9591Z" fill="#FFA453"/>
<path d="M39.9489 82.9586L39.5675 82.9837L42.2947 125.217L42.6761 125.192L39.9489 82.9586Z" fill="#FFA453"/>
<path d="M201 160.547H0V161H201V160.547Z" fill="#FFA453"/>
<path d="M44.9218 71.7727H13.5156V72.2255H44.9218V71.7727Z" fill="#FF855D"/>
<path d="M22.4888 67.6973H22.0401V71.8859H22.4888V67.6973Z" fill="#FF855D"/>
<path d="M36.1729 67.6973H35.7243V71.8859H36.1729V67.6973Z" fill="#FF855D"/>
<path d="M55.914 4.75466H24.5078V5.20748H55.914V4.75466Z" fill="#FF855D"/>
<path d="M47.3895 5.09428H46.9408V9.2829H47.3895V5.09428Z" fill="#FF855D"/>
<path d="M33.7053 5.09428H33.2566V9.2829H33.7053V5.09428Z" fill="#FF855D"/>
<path d="M87.5446 49.3579H56.1383V49.8107H87.5446V49.3579Z" fill="#FF855D"/>
<path d="M79.02 49.6975H78.5714V53.8861H79.02V49.6975Z" fill="#FF855D"/>
<path d="M65.3359 49.6975H64.8872V53.8861H65.3359V49.6975Z" fill="#FF855D"/>
<path d="M34.154 49.1315H2.74771V49.5843H34.154V49.1315Z" fill="#FF855D"/>
<path d="M25.6294 49.4711H25.1807V53.6597H25.6294V49.4711Z" fill="#FF855D"/>
<path d="M11.9453 49.4711H11.4966V53.6597H11.9453V49.4711Z" fill="#FF855D"/>
<path d="M71.8415 26.4902H40.4352V26.9431H71.8415V26.4902Z" fill="#FF855D"/>
<path d="M49.4084 22.4148H48.9598V26.6034H49.4084V22.4148Z" fill="#FF855D"/>
<path d="M63.0926 22.4148H62.6439V26.6034H63.0926V22.4148Z" fill="#FF855D"/>
</svg>
